<svg xmlns="http://www.w3.org/2000/svg" version="1.0" viewBox="0 0 1024.000000 1024.000000" preserveAspectRatio="xMidYMid meet"><rect width="80%" height="80%" fill="white"></rect><g transform="translate(0.000000,1024.000000) scale(0.100000,-0.100000)" fill="#ff7300" stroke="none"><path d="M0 5120 l0 -5120 5120 0 5120 0 0 5120 0 5120 -5120 0 -5120 0 0 -5120z m8190 2761 c0 -8 -31 -154 -111 -516 -51 -234 -119 -548 -145 -664 -13 -63 -27 -117 -30 -120 -3 -3 -472 -8 -1042 -11 l-1036 -5 -32 -155 c-35 -168 -70 -329 -134 -621 -22 -103 -40 -190 -40 -193 0 -4 383 -5 851 -4 l851 3 -5 -30 c-6 -32 -74 -343 -198 -907 l-74 -338 -830 0 c-456 0 -835 -4 -841 -8 -6 -4 -21 -52 -33 -107 -12 -55 -28 -129 -36 -165 -34 -153 -85 -391 -99 -460 -14 -69 -72 -338 -177 -820 -23 -107 -58 -271 -78 -365 l-37 -170 -615 0 c-417 0 -638 4 -687 12 -41 6 -75 13 -77 15 -5 5 106 535 170 813 19 83 46 202 59 265 59 277 88 412 111 510 13 58 35 159 50 225 14 66 44 201 66 300 21 99 50 234 64 300 14 66 27 130 30 143 l5 22 361 0 c390 0 405 2 447 55 48 61 35 150 -27 192 -34 23 -37 23 -378 23 l-343 0 5 23 c2 12 23 108 45 212 22 105 51 240 65 300 14 61 36 165 50 233 14 68 27 127 30 131 2 4 20 84 39 177 91 438 154 703 179 748 28 50 102 101 167 115 32 7 198 11 441 11 316 0 396 3 424 14 80 34 99 146 36 209 l-31 32 -1523 5 c-1502 5 -1522 5 -1549 25 -38 28 -51 58 -51 110 0 54 22 89 73 116 33 18 71 19 682 19 l648 0 37 58 c84 131 206 220 333 241 72 12 3940 14 3940 2z m-3890 -843 c0 -7 -7 -42 -16 -78 -8 -36 -23 -107 -34 -158 -10 -51 -20 -95 -23 -98 -2 -3 -240 -5 -527 -4 -566 1 -555 -1 -599 56 -81 103 -27 253 104 285 17 4 270 7 563 8 419 1 532 -2 532 -11z m-150 -630 c0 -21 -63 -328 -76 -370 -5 -17 -40 -18 -542 -18 -298 0 -563 4 -596 10 -71 11 -121 43 -146 92 -66 126 -9 256 130 299 14 4 296 8 628 8 l602 1 0 -22z m-230 -1050 c0 -7 -12 -68 -27 -135 l-26 -123 -624 0 c-695 0 -665 -3 -698 69 -27 61 -16 117 30 158 21 18 47 34 59 36 11 2 306 5 654 6 497 1 632 -2 632 -11z m-115 -560 c-4 -18 -19 -91 -34 -163 l-27 -130 -353 -3 -353 -2 -43 43 c-96 95 -59 233 72 274 26 8 151 12 391 12 l353 1 -6 -32z m-128 -591 c-3 -7 -18 -75 -33 -150 l-29 -137 -606 0 c-600 0 -607 0 -633 21 -72 56 -76 171 -8 232 50 45 64 46 706 47 495 0 607 -2 603 -13z m-127 -578 c0 -5 -11 -58 -24 -117 -13 -59 -29 -135 -36 -169 l-13 -63 -264 0 c-304 0 -316 3 -364 79 -68 107 -6 247 119 272 62 12 582 11 582 -2z m-140 -634 c0 -8 -14 -77 -31 -153 -17 -75 -44 -202 -60 -282 -44 -216 -47 -223 -70 -217 -50 13 -179 99 -252 166 -141 133 -221 279 -241 443 -5 45 -4 47 22 51 15 2 163 5 330 6 263 1 302 -1 302 -14z"></path></g></svg>